<svg width="1232" height="374" viewBox="0 0 1232 374" fill="none" xmlns="http://www.w3.org/2000/svg">
<g clip-path="url(#clip0_3_10)">
<path d="M630.99 77.68H619.76V310.3H630.99V77.68Z" fill="#414042"/>
<path d="M84 148.96H106.61V160.27C109.19 156.35 113.09 153.15 118.3 150.67C123.51 148.19 129.12 146.95 135.1 146.95C142.22 146.95 148.78 148.76 154.77 152.37C160.76 155.99 165.56 161.15 169.17 167.86C172.78 174.57 174.59 182.42 174.59 191.4C174.59 200.38 172.78 208.36 169.17 215.02C165.55 221.68 160.73 226.77 154.69 230.28C148.65 233.79 142.12 235.55 135.1 235.55C129.01 235.55 123.35 234.33 118.14 231.91C112.93 229.48 109.08 226.31 106.6 222.39V309.59H84V148.96ZM145.26 208.9C149.44 204.36 151.53 198.52 151.53 191.4C151.53 184.28 149.44 178.26 145.26 173.67C141.08 169.08 135.68 166.78 129.07 166.78C122.46 166.78 117.04 169.08 112.81 173.67C108.57 178.27 106.46 184.18 106.46 191.4C106.46 198.62 108.57 204.36 112.81 208.9C117.04 213.45 122.46 215.72 129.07 215.72C135.68 215.72 141.07 213.45 145.26 208.9ZM202.41 230.27C196.37 226.76 191.54 221.67 187.93 215.01C184.31 208.35 182.51 200.48 182.51 191.39C182.51 182.3 184.32 174.56 187.93 167.85C191.54 161.14 196.34 155.98 202.33 152.36C208.32 148.75 214.88 146.94 222 146.94C227.99 146.94 233.59 148.18 238.8 150.66C244.01 153.14 247.91 156.34 250.49 160.26V149.42H273.1V233.06H250.49V222.37C248.01 226.29 244.16 229.47 238.95 231.89C233.73 234.31 228.08 235.53 221.99 235.53C214.97 235.53 208.44 233.77 202.4 230.26L202.41 230.27ZM244.38 208.9C248.56 204.36 250.65 198.52 250.65 191.4C250.65 184.28 248.56 178.26 244.38 173.67C240.2 169.08 234.8 166.78 228.19 166.78C221.58 166.78 216.16 169.08 211.93 173.67C207.69 178.27 205.58 184.18 205.58 191.4C205.58 198.62 207.7 204.36 211.93 208.9C216.16 213.45 221.58 215.72 228.19 215.72C234.8 215.72 240.19 213.45 244.38 208.9ZM323.76 235.54C310.96 235.54 301.51 232.29 295.42 225.78C289.33 219.27 286.28 210.19 286.28 198.52V148.96H309.2V196.2C309.2 202.71 310.9 207.61 314.31 210.91C317.72 214.22 322.41 215.87 328.4 215.87C333.87 215.87 338.6 214.06 342.57 210.45C346.54 206.84 348.53 201.93 348.53 195.74V148.97H371.14V309.58H348.53V224.55C343.16 231.88 334.9 235.55 323.75 235.55L323.76 235.54ZM390.36 284.95L515.97 247V129.45L371.16 92.59V128.52H348.55V63L536.42 112.41V263.42L390.37 308.8V284.95H390.36Z" fill="#414042"/>
<path d="M402.44 148.96H425.36V196.2C425.36 209.42 431.61 216.02 444.1 216.02C456.59 216.02 462.84 209.41 462.84 196.2V148.96H485.76V198.52C485.76 210.08 482.2 219.15 475.07 225.7C467.95 232.26 457.62 235.54 444.09 235.54C430.56 235.54 420.24 232.24 413.11 225.63C405.99 219.02 402.42 209.99 402.42 198.53V148.97L402.44 148.96Z" fill="#00AD7D"/>
<path d="M714.2 233.8V148.54H767.79V163.16H730.27V183.75H764.86V198.37H730.27V233.81H714.19L714.2 233.8Z" fill="#414042"/>
<path d="M785.21 166.32C782.45 166.32 780.11 165.43 778.21 163.64C776.3 161.85 775.34 159.5 775.34 156.58C775.34 153.66 776.3 151.3 778.21 149.52C780.11 147.74 782.45 146.84 785.21 146.84C787.97 146.84 790.4 147.73 792.27 149.52C794.14 151.31 795.07 153.66 795.07 156.58C795.07 159.5 794.13 161.86 792.27 163.64C790.4 165.43 788.05 166.32 785.21 166.32ZM777.53 233.8V173.39H792.88V233.8H777.53Z" fill="#414042"/>
<path d="M807.73 233.8V173.39H822.83V181.31H825.02C826 179.2 827.82 177.19 830.5 175.28C833.18 173.37 837.24 172.42 842.68 172.42C847.39 172.42 851.51 173.5 855.04 175.65C858.58 177.8 861.31 180.77 863.26 184.54C865.21 188.32 866.18 192.72 866.18 197.76V233.81H850.83V198.98C850.83 194.43 849.71 191.02 847.48 188.75C845.25 186.48 842.06 185.34 837.92 185.34C833.21 185.34 829.56 186.9 826.96 190.03C824.36 193.16 823.06 197.52 823.06 203.12V233.81H807.71L807.73 233.8Z" fill="#414042"/>
<path d="M899.33 235.5C895.02 235.5 891.17 234.75 887.76 233.25C884.35 231.75 881.65 229.56 879.66 226.67C877.67 223.79 876.68 220.28 876.68 216.13C876.68 211.98 877.67 208.52 879.66 205.72C881.65 202.92 884.42 200.81 887.95 199.39C891.48 197.97 895.52 197.26 900.07 197.26H916.64V193.85C916.64 191.01 915.74 188.67 913.96 186.85C912.18 185.03 909.33 184.11 905.43 184.11C901.53 184.11 898.77 184.98 896.9 186.73C895.03 188.48 893.82 190.73 893.25 193.49L879.12 188.74C880.09 185.65 881.66 182.83 883.81 180.27C885.96 177.71 888.84 175.64 892.46 174.06C896.07 172.48 900.48 171.69 905.67 171.69C913.63 171.69 919.93 173.68 924.55 177.66C929.18 181.64 931.49 187.4 931.49 194.96V217.49C931.49 219.93 932.63 221.14 934.9 221.14H939.77V233.81H929.54C926.53 233.81 924.06 233.08 922.11 231.62C920.16 230.16 919.19 228.21 919.19 225.77V225.65H916.87C916.55 226.62 915.82 227.9 914.68 229.49C913.54 231.08 911.76 232.47 909.32 233.69C906.88 234.91 903.55 235.52 899.33 235.52V235.5ZM902.01 223.08C906.32 223.08 909.83 221.88 912.55 219.49C915.27 217.1 916.63 213.91 916.63 209.93V208.71H901.16C898.31 208.71 896.09 209.32 894.46 210.54C892.83 211.76 892.03 213.46 892.03 215.66C892.03 217.86 892.88 219.64 894.59 221.02C896.29 222.4 898.77 223.09 902.02 223.09L902.01 223.08Z" fill="#414042"/>
<path d="M948.78 233.8V173.39H963.88V181.31H966.07C967.05 179.2 968.87 177.19 971.55 175.28C974.23 173.37 978.29 172.42 983.73 172.42C988.44 172.42 992.56 173.5 996.09 175.65C999.63 177.8 1002.36 180.77 1004.31 184.54C1006.26 188.31 1007.23 192.72 1007.23 197.76V233.81H991.88V198.98C991.88 194.43 990.76 191.02 988.53 188.75C986.3 186.48 983.11 185.34 978.97 185.34C974.26 185.34 970.61 186.9 968.01 190.03C965.41 193.16 964.11 197.52 964.11 203.12V233.81H948.76L948.78 233.8Z" fill="#414042"/>
<path d="M1049.99 235.5C1044.14 235.5 1038.84 234.28 1034.09 231.85C1029.34 229.41 1025.58 225.88 1022.82 221.25C1020.06 216.62 1018.68 211.02 1018.68 204.44V202.74C1018.68 196.16 1020.06 190.56 1022.82 185.93C1025.58 181.3 1029.34 177.77 1034.09 175.33C1038.84 172.89 1044.14 171.68 1049.99 171.68C1055.84 171.68 1060.71 172.7 1064.85 174.73C1068.99 176.76 1072.34 179.54 1074.9 183.07C1077.46 186.6 1079.14 190.6 1079.95 195.07L1065.09 198.24C1064.77 195.8 1064.04 193.61 1062.9 191.66C1061.76 189.71 1060.16 188.17 1058.09 187.03C1056.02 185.89 1053.44 185.32 1050.36 185.32C1047.28 185.32 1044.49 185.99 1042.02 187.33C1039.54 188.67 1037.59 190.66 1036.17 193.3C1034.75 195.94 1034.04 199.17 1034.04 202.98V204.2C1034.04 208.02 1034.75 211.25 1036.17 213.88C1037.59 216.52 1039.54 218.51 1042.02 219.85C1044.5 221.19 1047.27 221.86 1050.36 221.86C1054.99 221.86 1058.5 220.66 1060.89 218.27C1063.28 215.88 1064.81 212.73 1065.46 208.83L1080.32 212.36C1079.27 216.66 1077.46 220.58 1074.9 224.11C1072.34 227.64 1068.99 230.42 1064.85 232.45C1060.71 234.48 1055.76 235.49 1049.99 235.49V235.5Z" fill="#414042"/>
<path d="M1118.32 235.5C1112.31 235.5 1107.01 234.22 1102.43 231.66C1097.84 229.1 1094.27 225.49 1091.71 220.82C1089.15 216.15 1087.87 210.65 1087.87 204.32V202.86C1087.87 196.53 1089.13 191.03 1091.65 186.36C1094.17 181.69 1097.7 178.08 1102.25 175.52C1106.8 172.96 1112.07 171.68 1118.09 171.68C1124.11 171.68 1129.18 173 1133.56 175.64C1137.94 178.28 1141.36 181.93 1143.79 186.6C1146.22 191.27 1147.44 196.69 1147.44 202.86V208.1H1103.47C1103.63 212.24 1105.17 215.61 1108.1 218.21C1111.02 220.81 1114.59 222.11 1118.82 222.11C1123.05 222.11 1126.29 221.18 1128.32 219.31C1130.35 217.44 1131.89 215.37 1132.95 213.1L1145.5 219.68C1144.36 221.79 1142.72 224.09 1140.57 226.56C1138.41 229.04 1135.55 231.15 1131.98 232.89C1128.41 234.63 1123.86 235.51 1118.34 235.51L1118.32 235.5ZM1103.59 196.65H1131.84C1131.52 193.16 1130.12 190.36 1127.64 188.24C1125.16 186.13 1121.93 185.07 1117.95 185.07C1113.97 185.07 1110.52 186.13 1108.08 188.24C1105.65 190.35 1104.14 193.15 1103.58 196.65H1103.59Z" fill="#414042"/>
</g>
<defs>
<clipPath id="clip0_3_10">
<rect width="1063.43" height="247.3" fill="white" transform="translate(84 63)"/>
</clipPath>
</defs>
</svg>
